<?xml version="1.0" encoding="utf-8"?>
<!-- Generator: Adobe Illustrator 27.5.0, SVG Export Plug-In . SVG Version: 6.00 Build 0)  -->
<svg version="1.1" xmlns="http://www.w3.org/2000/svg" xmlns:xlink="http://www.w3.org/1999/xlink" x="0px" y="0px"
	 viewBox="0 0 4975 4975" style="enable-background:new 0 0 4975 4975;" xml:space="preserve">
<g id="Layer_1">
	<radialGradient id="SVGID_1_" cx="2487.5" cy="2487.5" r="3933.4836" gradientUnits="userSpaceOnUse">
		<stop  offset="0.2" style="stop-color:#FFFFFF"/>
		<stop  offset="0.6571" style="stop-color:#FFFFFF"/>
		<stop  offset="0.7063" style="stop-color:#F8F9F9"/>
		<stop  offset="0.7627" style="stop-color:#ECEDEE"/>
		<stop  offset="0.8227" style="stop-color:#D9DADC"/>
		<stop  offset="0.8852" style="stop-color:#BEC0C2"/>
		<stop  offset="0.949" style="stop-color:#9D9FA2"/>
		<stop  offset="1" style="stop-color:#808285"/>
	</radialGradient>
	<rect style="fill:url(#SVGID_1_);" width="4975" height="4975"/>
</g>
<g id="Isolation_Mode">
	
		<radialGradient id="SVGID_00000138535972927686637860000004585189615071092888_" cx="2528.3848" cy="53741.0156" r="1565.9644" gradientTransform="matrix(1 0 0 0.1803 0 -5684.2993)" gradientUnits="userSpaceOnUse">
		<stop  offset="0" style="stop-color:#808285"/>
		<stop  offset="0.1191" style="stop-color:#9D9FA2"/>
		<stop  offset="0.2679" style="stop-color:#BEC0C2"/>
		<stop  offset="0.4136" style="stop-color:#D9DADC"/>
		<stop  offset="0.5536" style="stop-color:#ECEDEE"/>
		<stop  offset="0.6852" style="stop-color:#F8F9F9"/>
		<stop  offset="0.8" style="stop-color:#FFFFFF"/>
	</radialGradient>
	
		<ellipse style="fill:url(#SVGID_00000138535972927686637860000004585189615071092888_);" cx="2528.387" cy="4005.205" rx="1677.387" ry="335.772"/>
	<g>
		
			<linearGradient id="SVGID_00000103238108797144851110000001478284507630947727_" gradientUnits="userSpaceOnUse" x1="819.1395" y1="2988.8684" x2="4128.0396" y2="3050.8328">
			<stop  offset="0" style="stop-color:#F7941D"/>
			<stop  offset="1" style="stop-color:#ED1C24"/>
		</linearGradient>
		<path style="fill:url(#SVGID_00000103238108797144851110000001478284507630947727_);" d="M4154.18,2504.156
			c-12.285,143.944-46.908,283.875-103.372,417.393c-69.433,164.174-168.791,311.573-295.308,438.088
			c-89.059,89.043-188.448,164.638-296.777,225.828l-92.961-161.014l-15.523-26.894l-515.807-893.401H4154.18z"/>
		<path style="fill:#FFFFFF;" d="M3967.495,2504.156c-11.741,118.91-41.174,234.521-87.896,344.973
			c-60.06,142.021-146.034,269.558-255.541,379.05c-77.484,77.487-164.004,143.201-258.297,196.272l-15.523-26.894l-515.807-893.401
			H3967.495z"/>
		
			<linearGradient id="SVGID_00000178194952656557992800000012900262447586819485_" gradientUnits="userSpaceOnUse" x1="1212.2162" y1="2928.9556" x2="3963.4395" y2="2953.7412">
			<stop  offset="0" style="stop-color:#F7941D"/>
			<stop  offset="1" style="stop-color:#ED1C24"/>
		</linearGradient>
		<path style="fill:url(#SVGID_00000178194952656557992800000012900262447586819485_);" d="M3936.328,2504.156
			c-39.177,384.009-265.393,712.668-586.09,893.401l-515.807-893.401H3936.328z"/>
		<path style="fill:#FFFFFF;" d="M3415.607,2736.057c0,39.355-31.905,71.26-71.258,71.26c-39.355,0-71.26-31.904-71.26-71.26
			c0-39.354,31.904-71.258,71.26-71.258C3383.702,2664.799,3415.607,2696.702,3415.607,2736.057z"/>
		<path style="fill:#FFFFFF;" d="M3631.903,2561.155c0,39.354-31.905,71.259-71.258,71.259c-39.355,0-71.261-31.904-71.261-71.259
			c0-39.356,31.905-71.259,71.261-71.259C3599.998,2489.896,3631.903,2521.799,3631.903,2561.155z"/>
		<path style="fill:#FFFFFF;" d="M3128.263,2600.029c0,28.394-23.017,51.412-51.413,51.412c-28.395,0-51.414-23.019-51.414-51.412
			c0-28.396,23.02-51.414,51.414-51.414C3105.246,2548.615,3128.263,2571.633,3128.263,2600.029z"/>
		<path style="fill:#FFFFFF;" d="M3648.754,2787.471c0,17.887-14.498,32.386-32.386,32.386c-17.885,0-32.384-14.499-32.384-32.386
			c0-17.885,14.499-32.383,32.384-32.383C3634.256,2755.088,3648.754,2769.586,3648.754,2787.471z"/>
		<path style="fill:#FFFFFF;" d="M3447.993,3040.814c0,17.884-14.498,32.385-32.386,32.385c-17.885,0-32.386-14.501-32.386-32.385
			c0-17.887,14.501-32.387,32.386-32.387C3433.495,3008.428,3447.993,3022.928,3447.993,3040.814z"/>
		<path style="fill:#FFFFFF;" d="M3664.289,2983.243c0,17.884-14.498,32.385-32.386,32.385c-17.883,0-32.384-14.501-32.384-32.385
			c0-17.886,14.501-32.386,32.384-32.386C3649.791,2950.857,3664.289,2965.357,3664.289,2983.243z"/>
	</g>
	<g>
		
			<linearGradient id="SVGID_00000052788234144634704170000002824135767561010091_" gradientUnits="userSpaceOnUse" x1="844.9288" y1="1611.6071" x2="4153.8242" y2="1673.5714">
			<stop  offset="0" style="stop-color:#F7941D"/>
			<stop  offset="1" style="stop-color:#ED1C24"/>
		</linearGradient>
		<path style="fill:url(#SVGID_00000052788234144634704170000002824135767561010091_);" d="M993.761,2226.224
			c-0.775-19.038-1.162-38.139-1.162-57.301c0-185.97,36.482-366.534,108.438-536.642
			c69.446-164.175,168.806-311.572,295.322-438.088c67.958-67.958,141.944-128.08,221.32-179.944l93.117,161.277l15.584,27.001
			l591.03,1023.696H993.761z"/>
		
			<linearGradient id="SVGID_00000062181394392849440280000011645102155912707995_" gradientUnits="userSpaceOnUse" x1="822.5493" y1="2806.6863" x2="4131.4443" y2="2868.6506">
			<stop  offset="0" style="stop-color:#F7941D"/>
			<stop  offset="1" style="stop-color:#ED1C24"/>
		</linearGradient>
		<path style="fill:url(#SVGID_00000062181394392849440280000011645102155912707995_);" d="M1786.082,3208.482l-92.961,160.998
			c-108.313-61.175-207.705-136.771-296.763-225.813c-126.516-126.516-225.876-273.914-295.322-438.089
			c-56.465-133.517-91.087-273.447-103.372-417.391H2317.41l-515.79,893.4h-0.016L1786.082,3208.482z"/>
		
			<linearGradient id="SVGID_00000119797632862499447000000002071783769262374805_" gradientUnits="userSpaceOnUse" x1="820.7213" y1="2904.3823" x2="4129.6128" y2="2966.3467">
			<stop  offset="0" style="stop-color:#F7941D"/>
			<stop  offset="1" style="stop-color:#ED1C24"/>
		</linearGradient>
		<path style="fill:url(#SVGID_00000119797632862499447000000002071783769262374805_);" d="M2901.27,3237.481l93.116,161.278
			c-28.334,14.344-57.224,27.76-86.657,40.215c-170.123,71.955-350.67,108.437-536.642,108.437
			c-185.97,0-366.533-36.481-536.642-108.437c-29.433-12.455-58.323-25.871-86.657-40.215l93.117-161.278l15.522-26.909
			l514.66-891.401l514.646,891.401L2901.27,3237.481z"/>
		
			<linearGradient id="SVGID_00000165942548287765510720000006259614687253617032_" gradientUnits="userSpaceOnUse" x1="847.6881" y1="1464.1932" x2="4156.5806" y2="1526.1576">
			<stop  offset="0" style="stop-color:#F7941D"/>
			<stop  offset="1" style="stop-color:#ED1C24"/>
		</linearGradient>
		<path style="fill:url(#SVGID_00000165942548287765510720000006259614687253617032_);" d="M2963.325,1169.438l-592.238,1025.804
			l-592.254-1025.804l-15.538-26.907l-92.947-161.014c52.578-31.044,107.323-58.619,164.097-82.63
			c170.108-71.956,350.656-108.438,536.642-108.438c185.987,0,366.534,36.482,536.642,108.438
			c56.76,24.011,111.505,51.586,164.098,82.63l-92.962,161.014L2963.325,1169.438z"/>
		
			<linearGradient id="SVGID_00000049224309912523256740000012199312936612504485_" gradientUnits="userSpaceOnUse" x1="845.447" y1="1584.1093" x2="4154.334" y2="1646.0735">
			<stop  offset="0" style="stop-color:#F7941D"/>
			<stop  offset="1" style="stop-color:#ED1C24"/>
		</linearGradient>
		<path style="fill:url(#SVGID_00000049224309912523256740000012199312936612504485_);" d="M3749.561,2168.922
			c0,19.163-0.387,38.263-1.163,57.301H2424.749l591.047-1023.712l15.581-26.985l93.104-161.277
			c79.377,51.849,153.377,111.985,221.337,179.944c126.515,126.517,225.873,273.914,295.306,438.088
			C3713.079,1802.403,3749.561,1982.952,3749.561,2168.922z"/>
		<path style="fill:#FFFFFF;" d="M1179.84,2226.224c-0.899-19.023-1.348-38.124-1.348-57.301
			c0-160.968,31.54-317.149,93.752-464.221c60.074-142.022,146.049-269.56,255.555-379.066
			c56.388-56.372,117.547-106.517,182.997-150.109l15.584,27.001l591.03,1023.696H1179.84z"/>
		<path style="fill:#FFFFFF;" d="M2317.41,2288.188l-515.79,893.4h-0.016l-15.522,26.894
			c-94.279-53.071-180.796-118.785-258.283-196.272c-109.506-109.492-195.481-237.029-255.555-379.051
			c-46.722-110.452-76.155-226.062-87.897-344.971H2317.41z"/>
		<path style="fill:#FFFFFF;" d="M2885.732,3210.572l15.537,26.909c-21.61,10.736-43.594,20.835-65.946,30.284
			c-147.088,62.213-303.269,93.753-464.236,93.753c-160.967,0-317.164-31.54-464.235-93.753
			c-22.354-9.449-44.336-19.548-65.946-30.284l15.522-26.909l514.66-891.401L2885.732,3210.572z"/>
		<path style="fill:#FFFFFF;" d="M2963.325,1169.438l-592.238,1025.804l-592.254-1025.804l-15.538-26.907
			c45.978-27.25,93.876-51.431,143.557-72.437c147.071-62.212,303.269-93.752,464.235-93.752
			c160.968,0,317.148,31.54,464.236,93.752c49.664,21.006,97.563,45.188,143.541,72.437L2963.325,1169.438z"/>
		<path style="fill:#FFFFFF;" d="M3563.667,2168.922c0,19.177-0.449,38.278-1.348,57.301h-1137.57l591.047-1023.712l15.581-26.985
			c65.449,43.592,126.609,93.737,182.996,150.109c109.508,109.506,195.484,237.044,255.543,379.066
			C3532.127,1851.773,3563.667,2007.954,3563.667,2168.922z"/>
		
			<linearGradient id="SVGID_00000090989843480415056350000010811477289154658727_" gradientUnits="userSpaceOnUse" x1="1223.184" y1="1712.1642" x2="3974.3997" y2="1736.95">
			<stop  offset="0" style="stop-color:#F7941D"/>
			<stop  offset="1" style="stop-color:#ED1C24"/>
		</linearGradient>
		<path style="fill:url(#SVGID_00000090989843480415056350000010811477289154658727_);" d="M2317.41,2226.224H1210.884
			c-0.93-18.992-1.395-38.093-1.395-57.301c0-403.016,205.242-758.087,516.892-966.395L2317.41,2226.224z"/>
		
			<linearGradient id="SVGID_00000036240772430783200240000018386378183597722037_" gradientUnits="userSpaceOnUse" x1="1214.0394" y1="2727.272" x2="3965.2517" y2="2752.0576">
			<stop  offset="0" style="stop-color:#F7941D"/>
			<stop  offset="1" style="stop-color:#ED1C24"/>
		</linearGradient>
		<path style="fill:url(#SVGID_00000036240772430783200240000018386378183597722037_);" d="M2317.41,2288.188l-515.79,893.4h-0.016
			c-320.681-180.751-546.896-509.393-586.073-893.4H2317.41z"/>
		
			<linearGradient id="SVGID_00000049222665127136638420000002513749169701663664_" gradientUnits="userSpaceOnUse" x1="1213.2527" y1="2814.4382" x2="3964.4753" y2="2839.2241">
			<stop  offset="0" style="stop-color:#F7941D"/>
			<stop  offset="1" style="stop-color:#ED1C24"/>
		</linearGradient>
		<path style="fill:url(#SVGID_00000049222665127136638420000002513749169701663664_);" d="M2371.087,2319.171l514.646,891.401
			c-155.113,76.79-329.837,119.947-514.646,119.947s-359.532-43.157-514.66-119.947L2371.087,2319.171z"/>
		
			<linearGradient id="SVGID_00000160869422810209475360000017993936258774658742_" gradientUnits="userSpaceOnUse" x1="1224.2765" y1="1590.9275" x2="3975.4866" y2="1615.7131">
			<stop  offset="0" style="stop-color:#F7941D"/>
			<stop  offset="1" style="stop-color:#ED1C24"/>
		</linearGradient>
		<path style="fill:url(#SVGID_00000160869422810209475360000017993936258774658742_);" d="M2963.325,1169.438l-592.238,1025.804
			l-592.254-1025.804c173.422-102.985,375.937-162.114,592.254-162.114S2789.902,1066.453,2963.325,1169.438z"/>
		
			<linearGradient id="SVGID_00000117655573182217673910000016209376537781681837_" gradientUnits="userSpaceOnUse" x1="1223.2834" y1="1700.881" x2="3974.4971" y2="1725.6667">
			<stop  offset="0" style="stop-color:#F7941D"/>
			<stop  offset="1" style="stop-color:#ED1C24"/>
		</linearGradient>
		<path style="fill:url(#SVGID_00000117655573182217673910000016209376537781681837_);" d="M3532.685,2168.922
			c0,19.208-0.465,38.309-1.395,57.301H2424.749l591.047-1023.712C3327.443,1410.835,3532.685,1765.906,3532.685,2168.922z"/>
		
			<ellipse transform="matrix(0.9665 -0.2567 0.2567 0.9665 -258.9565 604.8707)" style="fill:#FFFFFF;" cx="2187.673" cy="1294.451" rx="58.866" ry="58.866"/>
		<path style="fill:#FFFFFF;" d="M3222.221,1607.844c0,39.354-31.906,71.259-71.261,71.259s-71.258-31.904-71.258-71.259
			c0-39.355,31.903-71.259,71.258-71.259S3222.221,1568.488,3222.221,1607.844z"/>
		<circle style="fill:#FFFFFF;" cx="2391.288" cy="3070.2" r="71.259"/>
		<circle style="fill:#FFFFFF;" cx="1873.291" cy="2312.801" r="71.259"/>
		<path style="fill:#FFFFFF;" d="M1530.852,1845.787c0,39.354-31.905,71.258-71.259,71.258c-39.354,0-71.259-31.904-71.259-71.258
			c0-39.356,31.905-71.259,71.259-71.259C1498.946,1774.528,1530.852,1806.431,1530.852,1845.787z"/>
		<path style="fill:#FFFFFF;" d="M2391.288,1639.569c0,21.833-17.699,39.533-39.533,39.533c-21.834,0-39.534-17.7-39.534-39.533
			s17.7-39.532,39.534-39.532C2373.589,1600.037,2391.288,1617.736,2391.288,1639.569z"/>
		<path style="fill:#FFFFFF;" d="M1609.918,2142.105c0,21.833-17.7,39.532-39.534,39.532s-39.533-17.699-39.533-39.532
			c0-21.834,17.7-39.533,39.533-39.533S1609.918,2120.271,1609.918,2142.105z"/>
		
			<ellipse transform="matrix(0.025 -0.9997 0.9997 0.025 1197.9469 4187.2285)" style="fill:#FFFFFF;" cx="2745.549" cy="1479.489" rx="51.414" ry="51.414"/>
		<path style="fill:#FFFFFF;" d="M1892.319,1428.075c0,28.396-23.019,51.414-51.414,51.414c-28.395,0-51.415-23.019-51.415-51.414
			c0-28.394,23.02-51.413,51.415-51.413C1869.301,1376.662,1892.319,1399.681,1892.319,1428.075z"/>
		<path style="fill:#FFFFFF;" d="M3138.567,1929.584c0,28.396-23.02,51.415-51.414,51.415c-28.396,0-51.413-23.019-51.413-51.415
			c0-28.394,23.017-51.413,51.413-51.413C3115.548,1878.171,3138.567,1901.19,3138.567,1929.584z"/>
		<path style="fill:#FFFFFF;" d="M2403.169,2520.088c0,28.396-23.019,51.415-51.414,51.415c-28.396,0-51.414-23.02-51.414-51.415
			c0-28.394,23.018-51.412,51.414-51.412C2380.15,2468.676,2403.169,2491.694,2403.169,2520.088z"/>
		<path style="fill:#FFFFFF;" d="M2706.143,2090.691c0,28.396-23.02,51.414-51.414,51.414c-28.396,0-51.413-23.019-51.413-51.414
			c0-28.395,23.017-51.413,51.413-51.413C2683.123,2039.278,2706.143,2062.297,2706.143,2090.691z"/>
		<path style="fill:#FFFFFF;" d="M2368.825,2828.843c0,28.394-23.02,51.413-51.415,51.413c-28.395,0-51.414-23.02-51.414-51.413
			c0-28.396,23.019-51.414,51.414-51.414C2345.806,2777.429,2368.825,2800.447,2368.825,2828.843z"/>
		
			<ellipse transform="matrix(0.0671 -0.9977 0.9977 0.0671 -904.8588 3969.5833)" style="fill:#FFFFFF;" cx="1670.348" cy="2468.675" rx="51.413" ry="51.414"/>
		<path style="fill:#FFFFFF;" d="M2533.2,1553.407c0,17.886-14.501,32.386-32.386,32.386s-32.384-14.5-32.384-32.386
			c0-17.885,14.499-32.384,32.384-32.384S2533.2,1535.521,2533.2,1553.407z"/>
		<path style="fill:#FFFFFF;" d="M1811.218,1878.17c0,17.886-14.5,32.385-32.385,32.385c-17.887,0-32.386-14.499-32.386-32.385
			c0-17.885,14.499-32.385,32.386-32.385C1796.718,1845.786,1811.218,1860.285,1811.218,1878.17z"/>
		
			<ellipse transform="matrix(0.9969 -0.0792 0.0792 0.9969 -126.4389 242.6816)" style="fill:#FFFFFF;" cx="2994.386" cy="1714.376" rx="32.386" ry="32.385"/>
		<path style="fill:#FFFFFF;" d="M2128.807,2345.186c0,17.886-14.499,32.385-32.386,32.385c-17.884,0-32.384-14.499-32.384-32.385
			c0-17.885,14.5-32.385,32.384-32.385C2114.308,2312.801,2128.807,2327.3,2128.807,2345.186z"/>
		
			<ellipse transform="matrix(0.9999 -0.0132 0.0132 0.9999 -25.7689 44.3329)" style="fill:#FFFFFF;" cx="3357.103" cy="1980.998" rx="32.386" ry="32.385"/>
		<path style="fill:#FFFFFF;" d="M2161.192,3031.327c0,17.885-14.499,32.385-32.386,32.385c-17.885,0-32.385-14.5-32.385-32.385
			c0-17.886,14.5-32.386,32.385-32.386C2146.693,2998.941,2161.192,3013.441,2161.192,3031.327z"/>
		<path style="fill:#FFFFFF;" d="M1687.39,2734.888c0,17.886-14.498,32.386-32.386,32.386c-17.884,0-32.385-14.5-32.385-32.386
			s14.5-32.384,32.385-32.384C1672.892,2702.504,1687.39,2717.002,1687.39,2734.888z"/>
		
			<ellipse transform="matrix(0.9871 -0.1602 0.1602 0.9871 -205.6908 369.2833)" style="fill:#FFFFFF;" cx="2187.673" cy="1460.46" rx="32.385" ry="32.385"/>
		<path style="fill:#FFFFFF;" d="M2012.478,1980.998c0,17.886-14.5,32.385-32.385,32.385c-17.886,0-32.386-14.499-32.386-32.385
			c0-17.885,14.5-32.385,32.386-32.385C1997.978,1948.613,2012.478,1963.113,2012.478,1980.998z"/>
		<path style="fill:#FFFFFF;" d="M2836.604,1845.786c0,17.886-14.501,32.386-32.388,32.386c-17.886,0-32.387-14.5-32.387-32.386
			c0-17.885,14.501-32.384,32.387-32.384C2822.104,1813.401,2836.604,1827.9,2836.604,1845.786z"/>
		<path style="fill:#FFFFFF;" d="M2565.586,2880.256c0,17.886-14.498,32.387-32.386,32.387c-17.885,0-32.388-14.501-32.388-32.387
			c0-17.885,14.503-32.384,32.388-32.384C2551.088,2847.872,2565.586,2862.371,2565.586,2880.256z"/>
		<path style="fill:#FFFFFF;" d="M1873.291,2702.504c0,17.885-14.5,32.385-32.386,32.385s-32.386-14.5-32.386-32.385
			s14.5-32.385,32.386-32.385S1873.291,2684.619,1873.291,2702.504z"/>
	</g>
</g>
</svg>
