<?xml version="1.0" standalone="no"?>
<!DOCTYPE svg PUBLIC "-//W3C//DTD SVG 20010904//EN"
 "http://www.w3.org/TR/2001/REC-SVG-20010904/DTD/svg10.dtd">
<svg version="1.0" xmlns="http://www.w3.org/2000/svg"
 width="749.000000pt" height="777.000000pt" viewBox="0 0 749.000000 777.000000"
 preserveAspectRatio="xMidYMid meet">

<g transform="translate(0.000000,777.000000) scale(0.100000,-0.100000)"
fill="#000000" stroke="none">
<path d="M5530 7602 c-29 -92 -53 -171 -54 -176 0 -5 22 -14 49 -21 59 -14
123 -45 147 -71 9 -11 37 -55 63 -99 90 -153 357 -435 505 -534 114 -76 249
-126 360 -132 19 -2 43 -9 53 -17 29 -26 47 -108 47 -221 0 -95 6 -128 61
-350 34 -135 62 -247 64 -249 2 -2 153 66 270 123 39 19 140 66 225 104 85 38
156 74 158 80 2 6 -32 79 -75 163 -268 524 -685 969 -1196 1276 -173 104 -335
181 -563 267 l-61 23 -53 -166z"/>
<path d="M5564 6958 c-57 -18 -127 -80 -157 -139 -62 -122 -43 -243 53 -341
68 -67 138 -94 226 -85 108 11 186 64 233 159 26 51 31 73 31 132 0 84 -20
134 -77 196 -55 62 -121 90 -208 89 -38 -1 -84 -6 -101 -11z"/>
<path d="M2915 6400 c-767 -78 -1446 -398 -1980 -935 -797 -800 -1110 -1951
-831 -3049 61 -238 121 -398 236 -631 482 -976 1408 -1628 2500 -1761 162 -20
538 -23 685 -6 596 70 1089 258 1555 592 335 240 653 586 867 943 513 855 601
1892 241 2820 -27 70 -54 127 -59 127 -5 0 -98 -40 -207 -88 -108 -49 -251
-113 -317 -142 -66 -29 -123 -55 -127 -59 -11 -9 78 -311 193 -656 123 -373
196 -530 268 -579 25 -17 65 -50 89 -72 68 -67 55 -116 -58 -215 -34 -29 -72
-72 -85 -94 -39 -67 -84 -192 -121 -342 -33 -134 -35 -151 -33 -292 2 -145 1
-150 -25 -194 -43 -75 -132 -135 -306 -207 -90 -38 -185 -106 -261 -188 -104
-113 -301 -377 -356 -477 -78 -143 -132 -186 -281 -227 -70 -19 -107 -22 -409
-24 -190 -2 -359 -8 -395 -14 -152 -28 -355 -131 -475 -242 -75 -70 -96 -72
-204 -28 -60 25 -268 134 -354 185 -92 55 -490 125 -714 125 -149 0 -170 18
-140 121 31 102 -95 398 -251 592 -73 91 -169 174 -320 276 -133 91 -169 110
-293 157 -132 51 -204 92 -268 154 -95 93 -99 176 -19 379 21 54 44 119 51
145 16 66 6 215 -21 301 -37 118 -190 494 -243 599 -39 76 -52 113 -55 155
l-4 56 99 100 c243 246 385 466 482 749 65 189 73 228 80 407 7 163 8 168 37
215 40 66 108 105 269 155 72 23 164 59 205 81 129 70 539 326 685 428 342
239 451 286 660 284 138 -2 248 -17 389 -55 309 -83 305 -82 575 -73 l244 9
53 165 c30 91 54 168 54 171 0 4 -8 9 -17 12 -10 2 -65 19 -123 36 -127 37
-259 65 -435 92 -149 24 -575 34 -730 19z"/>
<path d="M6045 6201 c-59 -17 -86 -31 -131 -73 -72 -66 -89 -107 -89 -213 0
-80 3 -95 27 -135 122 -207 409 -205 515 3 72 144 15 320 -128 393 -53 26
-145 38 -194 25z"/>
<path d="M5338 5921 c-188 -74 -250 -310 -122 -460 54 -63 113 -93 195 -99 87
-6 142 9 204 56 97 74 136 196 101 317 -24 80 -108 166 -186 189 -70 21 -133
20 -192 -3z"/>
<path d="M3200 5461 c-94 -21 -174 -85 -213 -170 -29 -63 -29 -169 -1 -232 71
-155 251 -220 399 -144 215 110 209 422 -10 521 -58 26 -125 36 -175 25z"/>
<path d="M1917 4760 c-84 -21 -154 -77 -195 -154 -22 -43 -27 -64 -27 -131 0
-67 5 -88 27 -130 56 -106 146 -160 263 -159 85 1 131 20 195 80 69 64 94 127
88 224 -5 87 -27 137 -85 192 -68 66 -180 99 -266 78z"/>
<path d="M2722 4012 c-61 -22 -132 -85 -165 -147 -17 -32 -22 -57 -22 -125 0
-73 4 -92 27 -136 52 -98 145 -154 258 -154 113 0 210 59 260 156 35 68 36
198 2 261 -69 132 -223 193 -360 145z"/>
<path d="M1481 3649 c-95 -19 -186 -100 -217 -192 -22 -65 -15 -166 14 -224
65 -127 213 -190 348 -147 84 26 166 108 190 189 62 215 -119 417 -335 374z"/>
<path d="M4197 3406 c-160 -57 -234 -249 -156 -404 65 -131 200 -189 344 -148
83 25 166 108 190 191 29 98 6 205 -59 282 -15 17 -54 46 -88 62 -50 25 -73
31 -127 31 -36 -1 -83 -7 -104 -14z"/>
<path d="M5114 3362 c-224 -109 -220 -425 7 -527 54 -24 71 -27 133 -23 82 6
137 30 192 85 56 56 79 114 79 203 0 89 -23 147 -79 203 -57 57 -110 80 -196
84 -67 4 -81 1 -136 -25z"/>
<path d="M2925 2837 c-90 -30 -144 -75 -186 -157 -33 -63 -34 -186 -1 -247 97
-184 321 -224 465 -85 58 56 80 105 85 193 4 67 1 84 -20 131 -47 102 -138
166 -246 174 -32 2 -75 -2 -97 -9z"/>
<path d="M4374 2407 c-64 -31 -114 -80 -145 -143 -35 -71 -33 -179 4 -250 101
-196 369 -219 497 -43 80 112 68 272 -28 372 -57 60 -105 80 -197 84 -69 4
-87 1 -131 -20z"/>
<path d="M2040 2191 c-47 -15 -85 -39 -122 -78 -116 -120 -110 -306 13 -417
146 -131 368 -87 455 91 68 138 8 313 -131 386 -44 22 -170 33 -215 18z"/>
<path d="M3081 1609 c-94 -18 -186 -99 -217 -192 -22 -65 -15 -166 14 -224 65
-127 213 -190 348 -147 84 26 166 108 190 189 62 216 -117 415 -335 374z"/>
</g>
</svg>
